<svg width="12" height="12" viewBox="0 0 12 12" fill="none" xmlns="http://www.w3.org/2000/svg">
<path d="M11.1546 9.21649C11.4845 9.54639 11.6495 9.93127 11.6495 10.3711C11.6632 10.7972 11.5052 11.1753 11.1753 11.5052C10.8454 11.8351 10.4605 12 10.0206 12C9.5945 11.9863 9.21649 11.8144 8.8866 11.4845L6 8.59794L3.29897 11.299C2.91409 11.6838 2.46735 11.8694 1.95876 11.8557C1.46392 11.8557 1.02405 11.6632 0.639175 11.2783C0.254295 10.8935 0.0549828 10.4467 0.0412372 9.93814C0.0412371 9.4433 0.233677 9.00344 0.618557 8.61856L3.31959 5.91753L0.494845 3.09278C0.164948 2.76289 0 2.37801 0 1.93814C5.12067e-08 1.49828 0.164948 1.1134 0.494845 0.783505C0.824742 0.453608 1.20275 0.295532 1.62887 0.309278C2.05498 0.323024 2.43299 0.494845 2.76289 0.824742L5.58763 3.64948L8.65979 0.577319C9.04467 0.19244 9.48454 0 9.97938 0C10.488 0.0137455 10.9416 0.219931 11.3402 0.618557C11.7251 1.00344 11.9175 1.4433 11.9175 1.93814C11.9175 2.43299 11.7251 2.87285 11.3402 3.25773L8.26804 6.3299L11.1546 9.21649Z" fill="#636363"/>
</svg>
